HIERARCHY
ROOT Hips
{
	OFFSET 0.0 0.0 0.0
	CHANNELS 6 Xposition Yposition Zposition Zrotation Yrotation Xrotation
	JOINT LeftUpLeg
	{
		OFFSET 0.0 0.0 50
		CHANNELS 3 Zrotation Yrotation Xrotation
		JOINT LeftLeg
		{
			OFFSET 0.0 0.0 30
			CHANNELS 3 Zrotation Yrotation Xrotation
            End Site
            {
                OFFSET 0.000000 0.000000 15
            }
		}
	}
}
MOTION
Frames: 3
Frame Time: 0.033333
0.0 0.0 0.0 0.0 0.0 0.0 0.0 0.0 0.0 0.0 0.0 0.0
0.0 0.0 0.0 0.0 0.0 45 0.0 0.0 45 0.0 0.0 45.0
0.0 0.0 0.0 0.0 0.0 90 0.0 0.0 90 0.0 0.0 90.0
